<svg width="69" height="65" viewBox="0 0 69 65" fill="none" xmlns="http://www.w3.org/2000/svg">
<path d="M0 24C0 21.7909 1.79086 20 4 20H11V45H4C1.79086 45 0 43.2091 0 41V24Z" fill="#C4C4C4"/>
<path d="M31.4994 0.927073C26.4018 6.27353 18.5638 14.4534 15.3757 17.5519C14.5592 18.3455 14 19.5091 14 20.6478V44.4556C14 45.2541 14.3184 46.0197 14.8846 46.5828L32.5266 64.1272C33.0887 64.6862 33.8493 65 34.642 65H35C36.6569 65 38 63.6569 38 62V3C38 1.34315 36.6569 0 35 0H33.6685C32.8476 0 32.0659 0.332957 31.4994 0.927073Z" fill="#C4C4C4"/>
<rect x="66" y="22" width="4" height="28" transform="rotate(45 66 22)" fill="#C4C4C4"/>
<rect x="46" y="25" width="4" height="28" transform="rotate(-45 46 25)" fill="#C4C4C4"/>
</svg>
