<svg width="59" height="65" viewBox="0 0 59 65" fill="none" xmlns="http://www.w3.org/2000/svg">
<path d="M0 24C0 21.7909 1.79086 20 4 20H11V45H4C1.79086 45 0 43.2091 0 41V24Z" fill="#C4C4C4"/>
<path d="M31.4994 0.927073C26.4018 6.27353 18.5638 14.4534 15.3757 17.5519C14.5592 18.3455 14 19.5091 14 20.6478V44.4556C14 45.2541 14.3184 46.0197 14.8846 46.5828L32.5266 64.1272C33.0887 64.6862 33.8493 65 34.642 65H35C36.6569 65 38 63.6569 38 62V3C38 1.34315 36.6569 0 35 0H33.6685C32.8476 0 32.0659 0.332957 31.4994 0.927073Z" fill="#C4C4C4"/>
<path d="M43 27L43.4686 27.4017C46.7903 30.2488 46.56 35.4572 43 38V38" stroke="#C4C4C4" stroke-width="3" stroke-linejoin="round"/>
<path d="M48 20L51.7475 24.5993C55.8903 29.6836 55.5972 37.0575 51.0638 41.7969L48 45" stroke="#C4C4C4" stroke-width="3" stroke-linejoin="round"/>
</svg>
